REM DIRINDEX 1\2,1\3,1\4,1\5,1\6
REM DIRNAME folder01,folder02,folder03,folder04,folder05,folder06
TITLE ""
FILE "Disc2Track49.mp3" MP3
  TRACK 01 AUDIO
    TITLE "3:cjc030_03523"
    INDEX 01 00:00:00
  TRACK 02 AUDIO
    TITLE "0:"
    INDEX 01 00:00:74
  TRACK 03 AUDIO
    TITLE "4:cjc030_03524"
    INDEX 01 00:01:07
  TRACK 04 AUDIO
    TITLE "0:"
    INDEX 01 00:02:30
  TRACK 05 AUDIO
    TITLE "5:cjc030_03525"
    INDEX 01 00:02:38
  TRACK 06 AUDIO
    TITLE "0:"
    INDEX 01 00:03:41
  TRACK 07 AUDIO
    TITLE "6:cjc030_03526"
    INDEX 01 00:03:55
  TRACK 08 AUDIO
    TITLE "0:"
    INDEX 01 00:08:42
  TRACK 09 AUDIO
    TITLE "3:cjc030_03527"
    INDEX 01 00:09:16
  TRACK 10 AUDIO
    TITLE "0:"
    INDEX 01 00:10:31
  TRACK 11 AUDIO
    TITLE "4:cjc030_03528"
    INDEX 01 00:10:39
  TRACK 12 AUDIO
    TITLE "0:"
    INDEX 01 00:11:31
  TRACK 13 AUDIO
    TITLE "5:cjc030_03529"
    INDEX 01 00:11:40
  TRACK 14 AUDIO
    TITLE "0:"
    INDEX 01 00:12:54
  TRACK 15 AUDIO
    TITLE "3:cjc030_03530"
    INDEX 01 00:13:30
  TRACK 16 AUDIO
    TITLE "0:"
    INDEX 01 00:14:37
  TRACK 17 AUDIO
    TITLE "4:cjc030_03531"
    INDEX 01 00:14:45
  TRACK 18 AUDIO
    TITLE "0:"
    INDEX 01 00:16:57
  TRACK 19 AUDIO
    TITLE "5:cjc030_03532"
    INDEX 01 00:16:65
  TRACK 20 AUDIO
    TITLE "0:"
    INDEX 01 00:17:72
  TRACK 21 AUDIO
    TITLE "6:cjc030_03533"
    INDEX 01 00:18:09
  TRACK 22 AUDIO
    TITLE "0:"
    INDEX 01 00:21:11
  TRACK 23 AUDIO
    TITLE "3:cjc030_03534"
    INDEX 01 00:21:58
  TRACK 24 AUDIO
    TITLE "0:"
    INDEX 01 00:23:03
  TRACK 25 AUDIO
    TITLE "4:cjc030_03535"
    INDEX 01 00:23:10
  TRACK 26 AUDIO
    TITLE "0:"
    INDEX 01 00:24:20
  TRACK 27 AUDIO
    TITLE "5:cjc030_03536"
    INDEX 01 00:24:29
  TRACK 28 AUDIO
    TITLE "0:"
    INDEX 01 00:25:46
  TRACK 29 AUDIO
    TITLE "3:cjc030_03537"
    INDEX 01 00:26:28
  TRACK 30 AUDIO
    TITLE "0:"
    INDEX 01 00:27:45
  TRACK 31 AUDIO
    TITLE "4:cjc030_03538"
    INDEX 01 00:27:55
  TRACK 32 AUDIO
    TITLE "0:"
    INDEX 01 00:30:42
  TRACK 33 AUDIO
    TITLE "5:cjc030_03539"
    INDEX 01 00:30:50
  TRACK 34 AUDIO
    TITLE "0:"
    INDEX 01 00:31:67
  TRACK 35 AUDIO
    TITLE "6:cjc030_03540"
    INDEX 01 00:32:03
  TRACK 36 AUDIO
    TITLE "0:"
    INDEX 01 00:36:56
  TRACK 37 AUDIO
    TITLE "3:cjc030_03541"
    INDEX 01 00:37:26
  TRACK 38 AUDIO
    TITLE "0:"
    INDEX 01 00:38:41
  TRACK 39 AUDIO
    TITLE "4:cjc030_03542"
    INDEX 01 00:38:51
  TRACK 40 AUDIO
    TITLE "0:"
    INDEX 01 00:40:38
  TRACK 41 AUDIO
    TITLE "5:cjc030_03543"
    INDEX 01 00:40:46
  TRACK 42 AUDIO
    TITLE "0:"
    INDEX 01 00:41:63
  TRACK 43 AUDIO
    TITLE "3:cjc030_03544"
    INDEX 01 00:42:43
  TRACK 44 AUDIO
    TITLE "0:"
    INDEX 01 00:43:39
  TRACK 45 AUDIO
    TITLE "4:cjc030_03545"
    INDEX 01 00:43:48
  TRACK 46 AUDIO
    TITLE "0:"
    INDEX 01 00:48:28
  TRACK 47 AUDIO
    TITLE "5:cjc030_03546"
    INDEX 01 00:48:34
  TRACK 48 AUDIO
    TITLE "0:"
    INDEX 01 00:49:31
  TRACK 49 AUDIO
    TITLE "6:cjc030_03547"
    INDEX 01 00:49:43
  TRACK 50 AUDIO
    TITLE "0:"
    INDEX 01 00:53:31
  TRACK 51 AUDIO
    TITLE "3:cjc030_03548"
    INDEX 01 00:54:03
  TRACK 52 AUDIO
    TITLE "0:"
    INDEX 01 00:55:12
  TRACK 53 AUDIO
    TITLE "4:cjc030_03549"
    INDEX 01 00:55:20
  TRACK 54 AUDIO
    TITLE "0:"
    INDEX 01 00:58:03
  TRACK 55 AUDIO
    TITLE "5:cjc030_03550"
    INDEX 01 00:58:11
  TRACK 56 AUDIO
    TITLE "0:"
    INDEX 01 00:59:18
  TRACK 57 AUDIO
    TITLE "6:cjc030_03551"
    INDEX 01 00:59:32
  TRACK 58 AUDIO
    TITLE "0:"
    INDEX 01 01:01:44
  TRACK 59 AUDIO
    TITLE "3:cjc030_03552"
    INDEX 01 01:02:14
  TRACK 60 AUDIO
    TITLE "0:"
    INDEX 01 01:03:27
  TRACK 61 AUDIO
    TITLE "4:cjc030_03553"
    INDEX 01 01:03:37
  TRACK 62 AUDIO
    TITLE "0:"
    INDEX 01 01:05:52
  TRACK 63 AUDIO
    TITLE "5:cjc030_03554"
    INDEX 01 01:05:60
  TRACK 64 AUDIO
    TITLE "0:"
    INDEX 01 01:06:71
  TRACK 65 AUDIO
    TITLE "6:cjc030_03555"
    INDEX 01 01:07:12
  TRACK 66 AUDIO
    TITLE "0:"
    INDEX 01 01:11:74
  TRACK 67 AUDIO
    TITLE "3:cjc030_03556"
    INDEX 01 01:12:48
  TRACK 68 AUDIO
    TITLE "0:"
    INDEX 01 01:13:51
  TRACK 69 AUDIO
    TITLE "4:cjc030_03557"
    INDEX 01 01:13:61
  TRACK 70 AUDIO
    TITLE "0:"
    INDEX 01 01:14:74
  TRACK 71 AUDIO
    TITLE "5:cjc030_03558"
    INDEX 01 01:15:07
  TRACK 72 AUDIO
    TITLE "0:"
    INDEX 01 01:16:11
  TRACK 73 AUDIO
    TITLE "6:cjc030_03559"
    INDEX 01 01:16:24
  TRACK 74 AUDIO
    TITLE "0:"
    INDEX 01 01:19:44
  TRACK 75 AUDIO
    TITLE "3:cjc030_03560"
    INDEX 01 01:20:18
  TRACK 76 AUDIO
    TITLE "0:"
    INDEX 01 01:21:39
  TRACK 77 AUDIO
    TITLE "4:cjc030_03561"
    INDEX 01 01:21:47
  TRACK 78 AUDIO
    TITLE "0:"
    INDEX 01 01:22:39
  TRACK 79 AUDIO
    TITLE "5:cjc030_03562"
    INDEX 01 01:22:46
  TRACK 80 AUDIO
    TITLE "0:"
    INDEX 01 01:23:69
